<?xml version="1.0" standalone="no"?>
<!DOCTYPE svg PUBLIC "-//W3C//DTD SVG 20010904//EN"
 "http://www.w3.org/TR/2001/REC-SVG-20010904/DTD/svg10.dtd">
<svg version="1.0" xmlns="http://www.w3.org/2000/svg"
 width="800.000000pt" height="800.000000pt" viewBox="0 0 800.000000 800.000000"
 preserveAspectRatio="xMidYMid meet">
<metadata>
Created by potrace 1.11, written by Peter Selinger 2001-2013
</metadata>
<g transform="translate(0.000000,800.000000) scale(0.100000,-0.100000)"
fill="#000000" stroke="none">
<path d="M4894 6673 c-9 -21 -20 -46 -25 -55 -8 -15 4 -24 81 -63 49 -25 90
-50 90 -55 0 -9 -85 -175 -97 -190 -2 -2 -47 17 -100 43 -52 27 -97 47 -98 45
-8 -9 -56 -110 -53 -113 2 -1 45 -24 96 -49 l93 -47 -53 -99 c-28 -55 -56
-100 -61 -100 -5 0 -49 18 -98 40 -49 22 -93 40 -97 40 -10 0 -62 -92 -62
-109 0 -6 37 -29 83 -52 45 -23 88 -46 95 -51 9 -8 0 -33 -40 -109 -29 -54
-57 -99 -63 -99 -5 0 -48 18 -95 40 -47 22 -90 40 -97 40 -10 0 -63 -79 -63
-94 0 -3 30 -20 68 -38 37 -17 81 -40 99 -51 l32 -18 -57 -110 c-31 -60 -61
-109 -66 -109 -5 0 -53 22 -106 49 l-96 50 -28 -56 c-15 -30 -26 -57 -24 -58
2 -1 42 -28 91 -59 48 -32 87 -63 87 -69 0 -7 -27 -61 -60 -121 -33 -61 -60
-113 -60 -117 0 -24 -31 -15 -110 30 -50 28 -93 51 -98 51 -8 0 -52 -84 -52
-100 0 -5 41 -32 90 -61 50 -28 90 -55 90 -59 0 -7 -116 -236 -126 -248 -1 -2
-43 24 -93 58 -51 33 -96 58 -100 55 -17 -10 -62 -98 -54 -105 5 -4 45 -35 91
-69 45 -34 82 -66 82 -71 0 -5 -21 -49 -47 -97 -78 -143 -63 -132 -124 -91
-117 76 -130 82 -140 67 -34 -51 -60 -100 -57 -109 1 -5 43 -33 92 -62 49 -29
89 -57 89 -61 0 -16 -147 -277 -156 -277 -10 0 -145 78 -169 98 -14 12 -21 7
-58 -48 -23 -34 -40 -63 -38 -64 1 -2 47 -31 101 -66 53 -35 97 -65 97 -68 0
-5 -139 -264 -146 -271 -2 -2 -47 24 -99 58 -53 33 -99 61 -103 61 -9 0 -72
-126 -72 -143 0 -6 58 -46 128 -88 70 -42 209 -128 310 -190 319 -199 377
-234 386 -234 4 0 25 41 46 90 20 50 72 173 115 275 42 102 88 210 100 240 12
30 64 154 115 275 51 121 105 249 120 285 15 36 79 189 142 340 265 630 587
1400 790 1883 55 132 98 240 96 241 -7 4 -521 251 -529 254 -5 2 -16 -14 -25
-35z"/>
<path d="M2330 5349 c-80 -49 -190 -117 -245 -150 -55 -33 -111 -68 -124 -78
l-23 -18 42 -77 c23 -42 41 -78 39 -80 -24 -16 -107 -66 -112 -66 -3 0 -24 34
-47 75 -23 41 -44 75 -47 75 -10 0 -112 -61 -119 -71 -3 -5 6 -30 20 -54 14
-25 37 -65 51 -88 l25 -44 -57 -42 -56 -41 -53 86 c-29 48 -57 91 -63 97 -6 6
-31 -4 -70 -28 -34 -20 -61 -39 -61 -42 0 -3 23 -42 50 -88 28 -46 50 -88 50
-94 0 -9 -89 -61 -104 -61 -3 0 -28 38 -56 85 -28 47 -56 85 -61 85 -7 0 -111
-61 -147 -86 -2 -1 16 -33 39 -71 23 -37 47 -77 53 -88 6 -11 47 -79 90 -151
l79 -131 527 -263 c290 -145 532 -260 538 -256 22 13 184 216 180 225 -2 5
-32 31 -68 58 -272 203 -677 508 -688 518 -14 13 -3 22 616 534 89 73 162 136
162 140 0 4 -27 44 -60 89 -33 45 -76 107 -96 137 -20 30 -42 55 -48 54 -6 0
-76 -40 -156 -90z"/>
<path d="M5683 5325 c-49 -58 -88 -111 -88 -118 0 -6 75 -68 166 -137 253
-191 551 -418 579 -440 22 -18 23 -22 9 -33 -8 -6 -75 -61 -148 -122 -73 -60
-150 -123 -171 -140 -229 -183 -458 -380 -453 -389 15 -24 162 -232 180 -255
l20 -24 529 330 529 330 0 287 0 287 -55 31 c-97 53 -989 498 -999 498 -6 0
-50 -47 -98 -105z m914 -381 c112 -46 123 -190 21 -255 -46 -28 -128 -22 -164
12 -81 76 -69 190 26 240 42 23 68 24 117 3z m-34 -403 c97 -37 121 -166 46
-241 -59 -59 -142 -55 -203 10 -37 40 -38 44 -34 101 3 45 10 65 29 85 43 47
108 65 162 45z"/>
<path d="M1000 1826 l0 -156 125 0 c186 0 215 17 215 127 0 32 0 71 0 88 0 19
-10 39 -30 60 l-30 30 -140 3 -140 4 0 -156z m254 78 c9 -8 16 -24 16 -35 0
-17 -7 -19 -65 -19 l-65 0 0 35 0 35 49 0 c32 0 55 -6 65 -16z m16 -123 c0
-34 -28 -51 -81 -51 l-49 0 0 35 0 35 65 0 c58 0 65 -2 65 -19z"/>
<path d="M1387 1973 c-4 -3 -7 -51 -7 -105 0 -179 22 -198 230 -198 l130 0 0
30 0 30 -93 0 c-59 0 -97 4 -105 12 -8 8 -12 50 -12 125 l0 113 -68 0 c-38 0
-72 -3 -75 -7z"/>
<path d="M1864 1973 c-12 -2 -34 -18 -50 -34 -26 -27 -29 -38 -32 -107 -2 -42
1 -90 7 -105 16 -40 64 -57 167 -57 141 0 174 27 174 143 0 121 -50 168 -175
166 -38 -1 -80 -4 -91 -6z m170 -75 c22 -31 21 -126 -1 -150 -20 -22 -76 -24
-97 -2 -23 22 -22 131 1 156 23 26 78 24 97 -4z"/>
<path d="M2243 1965 c-46 -20 -65 -56 -71 -135 -10 -139 19 -160 218 -160
l130 0 0 85 0 85 -40 0 -40 0 0 -55 0 -55 -49 0 c-67 0 -81 16 -81 91 0 86 16
99 125 99 l85 0 0 30 0 30 -122 0 c-82 -1 -134 -5 -155 -15z"/>
<path d="M2677 1973 c-4 -3 -7 -73 -7 -155 l0 -148 40 0 40 0 0 85 c0 47 4 85
8 85 5 0 26 -25 47 -55 20 -30 43 -55 49 -55 7 0 32 28 57 61 l44 61 3 -91 3
-91 39 0 40 0 0 155 0 155 -55 0 c-57 0 -110 -19 -117 -42 -3 -9 -15 -4 -37
15 -27 23 -42 27 -90 27 -32 0 -61 -3 -64 -7z"/>
<path d="M3080 1825 l0 -155 70 0 70 0 0 45 0 45 45 0 c44 0 46 -2 67 -45 20
-42 25 -45 60 -45 21 0 38 3 38 7 0 14 -123 269 -138 286 -12 14 -32 17 -114
17 l-98 0 0 -155z m178 50 c28 -59 28 -67 -5 -63 -26 3 -28 7 -31 56 -2 28 1
52 5 52 5 0 19 -20 31 -45z"/>
<path d="M3477 1974 c-4 -4 -7 -74 -7 -156 l0 -148 75 0 75 0 1 68 1 67 31
-67 31 -68 68 0 c37 0 68 4 68 9 0 5 -16 51 -35 101 -19 50 -35 96 -35 101 0
5 16 26 35 48 19 21 35 41 35 45 0 3 -16 6 -36 6 -30 0 -46 -9 -99 -61 l-64
-61 -3 58 -3 59 -65 3 c-36 2 -69 0 -73 -4z"/>
<path d="M3953 1973 c-12 -2 -35 -19 -52 -38 -38 -44 -52 -140 -27 -198 23
-56 59 -67 216 -67 l130 0 0 30 0 30 -93 0 c-99 0 -117 7 -117 47 0 23 2 23
105 23 l105 0 0 25 0 25 -105 0 c-97 0 -105 1 -105 19 0 40 26 51 121 51 l90
0 -3 28 -3 27 -120 1 c-66 1 -130 0 -142 -3z"/>
<path d="M4260 1826 l0 -156 70 0 69 0 3 68 3 67 32 -67 32 -68 71 0 c38 0 70
2 70 4 0 2 -12 30 -26 62 -16 37 -22 60 -15 62 50 17 54 104 7 151 -26 25 -30
26 -171 29 l-145 4 0 -156z m255 78 c32 -32 15 -49 -53 -52 l-62 -3 0 36 0 35
49 0 c32 0 55 -6 66 -16z"/>
<path d="M4723 1965 c-46 -20 -65 -56 -71 -135 -10 -139 19 -160 218 -160
l130 0 0 85 0 85 -40 0 -40 0 0 -55 0 -55 -49 0 c-67 0 -81 16 -81 91 0 86 16
99 125 99 l85 0 0 30 0 30 -122 0 c-82 -1 -134 -5 -155 -15z"/>
<path d="M5050 1972 c0 -5 20 -37 45 -73 44 -63 45 -65 45 -146 l0 -83 75 0
75 0 0 93 0 92 45 52 c25 28 45 56 45 62 0 6 -15 11 -33 11 -27 0 -40 -8 -66
-40 -17 -22 -36 -40 -40 -40 -5 0 -20 18 -35 40 -26 40 -27 40 -91 40 -36 0
-65 -4 -65 -8z"/>
<path d="M5437 1974 c-4 -4 -7 -18 -7 -31 0 -21 4 -23 55 -23 l55 0 0 -125 0
-125 70 0 70 0 0 125 0 125 56 0 c54 0 55 0 52 28 l-3 27 -171 3 c-93 1 -173
-1 -177 -4z"/>
<path d="M5955 1973 c-74 -18 -118 -149 -80 -239 22 -53 60 -64 215 -64 l130
0 0 30 0 30 -93 0 c-59 0 -97 4 -105 12 -7 7 -12 40 -12 78 0 92 10 100 124
100 l87 0 -3 28 -3 27 -120 1 c-66 1 -129 0 -140 -3z"/>
<path d="M6344 1973 c-12 -2 -34 -18 -50 -34 -26 -27 -29 -38 -32 -107 -2 -42
1 -90 7 -105 16 -40 64 -57 167 -57 141 0 174 27 174 143 0 121 -50 168 -175
166 -38 -1 -80 -4 -91 -6z m170 -75 c22 -31 21 -126 -1 -150 -20 -22 -76 -24
-97 -2 -23 22 -22 131 1 156 23 26 78 24 97 -4z"/>
<path d="M6650 1826 l0 -156 40 0 39 0 3 91 3 91 40 -58 c22 -32 47 -60 56
-62 10 -2 30 19 55 55 l39 58 5 -85 5 -85 43 -3 43 -3 -3 153 -3 153 -67 0
c-57 0 -70 -4 -93 -25 l-26 -25 -19 25 c-16 21 -28 25 -89 28 l-71 4 0 -156z"/>
<path d="M2566 1724 c-13 -35 -7 -54 19 -54 24 0 45 25 45 54 0 22 -56 22 -64
0z"/>
<path d="M5766 1724 c-13 -35 -7 -54 19 -54 24 0 45 25 45 54 0 22 -56 22 -64
0z"/>
</g>
</svg>
