<svg version="1.0" xmlns="http://www.w3.org/2000/svg" width="933.333" height="933.333" viewBox="0 0 700 700"><path d="M428 117c-1.1 2.1-2 4.3-2 4.8 0 .4 2.8 2.3 6.3 4.1 9.4 5 9.2 4.5 4.6 13.6-2.2 4.4-4.2 8.1-4.3 8.3-.2.1-4.1-1.6-8.7-3.8l-8.3-4-1.7 2.7c-4.1 6.5-3.7 7.4 5.1 11.8 4.4 2.2 8 4 8 4.1 0 .2-9.2 16.8-9.6 17.2-.1.2-3.9-1.3-8.4-3.2-4.4-2-8.4-3.6-8.9-3.6-1.2 0-5.3 8-4.8 9.4.3.7 3.7 2.9 7.6 5 4.1 2.2 7.1 4.4 7.1 5.3 0 2.3-7.1 15.4-8.7 16-.8.3-4.5-.9-8.3-2.6-3.9-1.7-7.6-3.1-8.3-3.1-1.6 0-6.1 6.6-5.3 7.9.3.5 4 2.6 8.1 4.6 4.2 2.1 7.8 4.1 8.1 4.6.6 1.1-8.7 18-10.2 18.6-.6.2-4.8-1.5-9.3-3.8-4.5-2.3-8.4-4-8.5-3.8-.2.2-1.3 2.4-2.4 4.8l-2 4.5 7.2 4.9c3.9 2.7 7.4 5.4 7.8 6 .7 1.1-10 22.7-11.2 22.7-.3 0-4-1.8-8.3-4-4.2-2.2-8-4-8.5-4-.4 0-1.7 1.9-2.9 4.3l-2.1 4.3 3.2 1.9c1.7 1 5.2 3.2 7.9 4.7 2.6 1.6 4.7 3.3 4.7 3.9 0 2-10.2 20.9-11.2 20.9-.6 0-2.6-1.1-4.4-2.5-1.8-1.4-3.6-2.5-4.1-2.5-.4 0-1.9-.9-3.3-2-3.5-2.7-4.7-2.5-7 1.2-2.8 4.6-2.5 5.9 1.7 8.8 2.1 1.4 5.4 4 7.5 5.8l3.7 3.4-3.9 7.6c-6.4 12.8-5.5 12.3-14 6.9-4.1-2.6-7.7-4.7-8.1-4.7-1.4 0-6.1 9-5.5 10.5.3.9 1.4 1.9 2.3 2.3 3.9 1.6 12.3 7.4 12.3 8.5 0 1.5-9.3 18.4-11.8 21.6l-1.9 2.4-7.8-4.7c-4.2-2.6-7.8-4.6-8-4.4-2 2.6-6.5 9.3-6.5 9.8 0 .4 3.8 3.2 8.5 6.4l8.5 5.6-5 9.8c-2.8 5.3-5.8 10.7-6.8 11.9l-1.7 2.2-8-5c-4.3-2.7-8.4-4.9-9-4.9-.5 0-2.2 2.6-3.7 5.7-2.3 5.1-2.4 6-1.2 7.3.8.8 16.8 11 35.7 22.6 26.7 16.5 34.5 20.9 35.5 20 .7-.7 7.5-16.3 15.2-34.7 7.7-18.3 14.4-34.3 14.9-35.4.5-1.1 3.7-8.8 7.1-17 3.4-8.3 6.8-16.4 7.6-18 .7-1.7 5.4-12.9 10.4-25s9.7-23.4 10.5-25c.7-1.7 4.3-10.2 7.9-19 3.7-8.8 7.1-16.9 7.6-18 .5-1.1 6.4-15.1 13.1-31 6.6-16 12.7-30.4 13.4-32 .8-1.7 6.8-16.1 13.4-32l12.1-29-23.2-11.3c-12.7-6.1-23.2-11.2-23.4-11.2-.2 0-1.3 1.8-2.4 4zM197.1 236.1c-10.7 6.5-19.7 11.9-20 11.9-.3 0-2.1 1.3-4 2.8l-3.3 2.8 3.5 6.9 3.5 6.9-2.1 1.1c-1.2.6-3.5 1.9-5 2.9-1.5 1.1-2.9 1.7-3.1 1.5-.1-.2-2-3.2-4-6.7-4.1-6.8-4.1-6.8-10.5-2.7-4.1 2.5-4.1 2.5-2.7 5.8.7 1.9 2.5 5.2 4 7.5 1.4 2.3 2.6 4.6 2.6 5.1 0 .9-7.8 7.1-9 7.1-.3 0-2.8-3.6-5.5-7.9-5.5-8.7-5.6-8.8-13-3.8l-3.4 2.3 1.9 3.5c1.1 1.9 3.1 5.5 4.5 8.1l2.5 4.7-4.5 2.7c-2.5 1.4-4.7 2.5-4.9 2.3-.2-.2-2.4-3.7-5-7.7l-4.6-7.3-4.8 2.6c-6.2 3.4-8.5 5.2-8.1 6.2.2.5 4.7 8 9.9 16.6 5.2 8.7 10.1 16.9 10.9 18.3 1 2 10.8 7.3 44 23.6 23.4 11.5 44.4 21.8 46.6 22.9l4 1.9 3.3-3.7c7.2-8.3 12.4-15.5 11.9-16.7-.3-.7-12.5-10.2-27.2-21.2-14.6-10.9-27.8-20.9-29.3-22.2-1.5-1.2-4.2-3.2-5.9-4.5-1.8-1.2-3.3-2.5-3.3-2.9 0-.4 3.9-4 8.7-8 4.7-4 10.7-9.1 13.3-11.3 2.5-2.2 13.9-11.7 25.3-21 11.3-9.4 20.6-17.4 20.7-17.8 0-.4-1.9-3.5-4.2-6.9-2.4-3.3-4.7-6.8-5.3-7.7-1.8-3.1-7.7-10.1-8.3-10-.4 0-9.4 5.4-20.1 12zM499.1 232c-7.6 8.8-9.3 11.4-8.6 13.1.5 1.1 59.6 46.9 64.5 49.9.7.4 1.1 1.2.9 1.7-.4 1.1-16.6 14.6-34.9 29.3-5.8 4.6-10.7 8.7-11 9-.3.3-3.4 3-7 5.9-3.6 3-8.4 7.3-10.7 9.5-5 4.6-5.6 2.8 5.9 18.8 5.8 8.1 7.3 9.6 8.7 8.9.9-.6 12.2-7.5 25.1-15.5 12.8-8 23.6-14.6 24.1-14.6.4 0 .9-.3 1.1-.8.2-.4 3.6-2.8 7.6-5.2 4.1-2.5 8.8-5.4 10.6-6.5 1.8-1.1 7.6-4.7 13-8l9.6-6-.2-25.5-.3-25.5-44-22.1c-24.2-12.2-45-22.4-46.2-22.8-1.8-.6-3.2.5-8.2 6.4zm80.3 36.5c3.4 2.2 5.6 6.4 5.6 10.5 0 10.5-12.4 15.9-20.4 8.9-11.5-10.1 2-27.8 14.8-19.4zm-4 34.9c6.3 2.6 8.5 12.8 4 19-7.2 9.6-23 3.3-21.7-8.7.6-5.3 2.3-7.9 6.5-10 4.1-2 6.9-2.1 11.2-.3zM88.7 527c-.9.4-1.2 4.2-1.2 13.5v13l11.7-.1c12.2 0 16.2-1.1 17.3-4.5.3-1 .6-5 .6-9 0-6.4-.2-7.4-2.7-10-2.6-2.7-3.1-2.8-13.6-3.1-6-.2-11.5-.1-12.1.2zm21.4 7.1c1.9 3.1 1 3.9-4.5 3.9-5.3 0-5.4-.1-5.8-3.1l-.5-3.1 5 .5c2.7.2 5.3 1.1 5.8 1.8zm-.8 8.8c.9.1 1.7.7 1.7 1.5 0 2.2-2.8 3.9-7 4.2-3.9.2-4 .2-4-3.1 0-3.2.1-3.3 3.8-3 2 .2 4.5.3 5.5.4zM211.7 526.7c-.2.1-3.5.3-7.5.4-10.7.3-14.2 4.1-14.2 15.4 0 6 .9 8.1 3.8 9.5 3.1 1.5 26.1 2.6 26.3 1.4.1-.5.2-3.9.3-7.7l.2-6.7H213.3l.1 4.7c.1 4.7.1 4.8-3.3 5-1.9.2-4.5-.4-5.7-1.2-1.9-1.2-2.2-2.2-2-7.1.2-7 1.4-8 10.3-8.3 7.4-.2 7.6-.3 8-3 .2-1.6-.5-2-4.3-2.3-2.5-.2-4.6-.2-4.7-.1zM257.6 527.2c-2.2.5-4.7 1.5-5.6 2.3-1.5 1.4-2 1.3-4.3-.5-1.8-1.5-4-2-8.1-2-5.1 0-5.6.2-5.7 2.2 0 1.3-.1 7.2-.2 13.3l-.1 11h6.9l.3-6.9c.1-3.9.4-7.2.6-7.3.2-.2 2 1.9 4.1 4.7l3.8 5.1 2.4-2.3c1.4-1.3 3.2-3.5 4.1-5.1 1.5-2.5 3.4-3.7 3.1-2-.1.5-.1 3.8 0 7.5l.1 6.8h7v-13.4c0-13.1 0-13.4-2.2-13.8-1.3-.2-4.1 0-6.2.4zM373.4 527.1c-.5.9-.8 18.3-.5 25.1.1 1.5 1.1 1.8 6.1 1.8h6l.1-4.3c.1-2.3.1-4.8 0-5.5-.4-2.8 1.2-.9 3.4 4.3l2.5 5.5h6c3.3 0 6-.3 6-.6 0-.4-.8-2.9-1.7-5.6-1.7-4.7-1.7-5 0-6.2 3.3-2.5 1.6-11.4-2.7-13.4-1.1-.5-6.2-1-11.3-1.1-5.1-.1-10.1-.4-11.2-.6-1.1-.2-2.3.1-2.7.6zm20.7 5.9c4.3 2.4 1.3 5-5.8 5-3 0-3.3-.3-3.3-3 0-2.8.3-3 3.6-3 1.9 0 4.4.5 5.5 1zM582.5 526.9c-.3.2-.5 6.4-.5 13.8V554h6.9l.3-7.8.3-7.7 3.4 4.8c2 2.7 4.1 4.6 5 4.5.8-.2 3-2.3 4.8-4.6 2.4-3.2 3.3-3.9 3.4-2.5.4 7.7.6 10.9.8 11.8 0 .6 1.6 1.2 3.5 1.3 3.3.2 3.5.1 3.8-3.5.2-2.1.2-8.2 0-13.6l-.3-9.7h-5.3c-3.9 0-6.1.6-8 2.1-2.6 2.1-2.8 2.1-4.7.3-1.9-1.7-12.3-3.7-13.4-2.5zM120.9 532.2c-.3 13.4.9 18 5 20 1.8.8 7.2 1.5 14.4 1.6l11.4.3.5-2.5c.3-1.4.2-2.6-.1-2.7-.3 0-4.1-.2-8.5-.3-5.3-.2-8.1-.8-8.7-1.7-.5-.8-.9-5.6-.9-10.7V527h-13l-.1 5.2zM160.8 528.6c-3.7 2.5-4.8 5.5-4.8 13.2.1 10.3 2.7 12.1 16.5 11.8 8.2-.2 9-.4 11.2-3 1.2-1.5 2.3-3.6 2.4-4.7.3-5.2.2-6.7-.4-10-1.2-6.2-4.4-8.2-14-8.6-6.5-.3-8.8 0-10.9 1.3zm16.6 5c2.3 2.3 2.5 10.8.2 13.2-2.1 2.2-5.6 2.2-7.6.2-2.6-2.6-2.7-10.5-.3-13.2 2-2.2 5.6-2.3 7.7-.2zM269.5 540.2v13.3h6c5.7 0 6-.1 6.2-2.5 0-1.4.1-3.1.2-3.8.1-.7 1.5-1.2 3.6-1.2 3 0 3.8.6 6 4.1 2.1 3.3 3.1 4 5.3 3.7 2-.2 2.6-.8 2.4-2.2-.4-2.2-9.5-21.1-11.2-23.1-.9-1.1-3.5-1.5-9.9-1.5h-8.6v13.2zM285 536c2.5 4.9 2.5 5-.5 5-2.3 0-2.5-.4-2.5-4.5 0-2.5.2-4.5.5-4.5.2 0 1.4 1.8 2.5 4zM303.9 529.2c0 1.3-.2 7.2-.2 13.3l-.2 11 6.8.3 6.7.3.1-5.8v-5.8l2.6 5.7 2.6 5.8h4.6c7.4 0 7.6-.5 4.2-10-3.2-8.7-3.1-9.9.8-13.4 2.9-2.6 2.6-3.6-1-3.6-2.3 0-4.3 1.3-8.5 5.1-3 2.9-5.4 4.8-5.5 4.3 0-.5-.2-2.5-.4-4.4-.1-1.9-.3-3.8-.4-4.3 0-.4-2.8-.7-6.1-.7-5.5 0-6 .2-6.1 2.2zM343.8 528.7c-7.1 4.4-7.6 21-.9 23.9.9.3 7.1.9 13.9 1.1l12.2.6v-5.8h-6.9c-8.2.1-11.1-.8-11.1-3.4 0-2.5 1.2-2.8 9-2.5 8.5.2 9.9-.2 9.3-2.6-.5-1.8-1.4-2-9.4-2-8.3 0-8.9-.1-8.9-2 0-2.7 3.6-4 11.6-4 6.2 0 6.4-.1 6.4-2.5V527h-11.2c-8.8 0-11.9.4-14 1.7zM413.3 528c-4 1.6-5.7 5.6-5.8 13.8 0 7 .2 7.6 2.7 9.5 2.4 1.8 4.3 2.1 15 2.1l12.3.1v-7.3l.1-7.2H430.3l.1 4.7.1 4.8-3.8.2c-5.8.2-8.1-2.5-7.5-8.9.7-6.5 2.4-7.7 11.4-7.8 6.8 0 7-.1 7-2.5V527l-11 .1c-6.1 0-12.1.4-13.3.9zM442 527.5c0 .3 1.6 3 3.7 6 3.6 5.5 3.8 6.2 4.2 18.7.1 1.5 1.1 1.8 6.6 1.8h6.5v-8.1c0-7.6.2-8.3 3.3-12.2 5.1-6.4 5.2-6.7 1.8-6.7-2.2 0-3.9 1-6.3 3.5l-3.1 3.5-2.9-3.5c-2.7-3.2-3.4-3.5-8.4-3.5-3 0-5.4.2-5.4.5zM475.4 528.5c-1 2.5.6 3.5 5.2 3.5h4.5l-.1 7.2c-.1 4-.2 9-.1 11l.1 3.8h12v-22h4.4c4.4 0 5.8-1.1 4.8-3.8-.7-1.9-30.1-1.7-30.8.3zM518.9 528.5c-7 3.8-7.8 21.2-1.2 24 1 .4 7.2 1 13.9 1.2 10 .5 12.2.3 12.7-.9 1.1-3.1-1-4.1-8.8-4.3-8.9-.2-9.5-.7-9.5-8.2 0-6.9 1.9-8.3 11.2-8.3 6.6 0 6.8-.1 6.8-2.5V527h-11.2c-7.8.1-12.1.5-13.9 1.5zM552.3 529.2c-3.4 2.5-4.3 5.2-4.3 12.7 0 9.8 1.8 11.3 13.8 11.8 11 .4 14.7-1.3 16-7.3 1.3-6.2 0-13.1-3.2-16.2-2.4-2.4-3.5-2.7-10.9-3-7.3-.3-8.6-.1-11.4 2zm17.1 4.4c2.3 2.3 2.5 10.8.2 13.2-2.1 2.2-5.6 2.2-7.6.2-2.6-2.6-2.7-10.5-.3-13.2 2-2.2 5.6-2.3 7.7-.2zM225.5 548.6c-1.9 2-1.9 4.3 0 5 1.9.8 4.5-1.3 4.5-3.6 0-2.4-2.6-3.2-4.5-1.4zM504.7 548.7c-1 1-.8 4.1.3 4.8 1.6 1 5-1.4 5-3.5 0-1.4-.7-2-2.3-2-1.3 0-2.7.3-3 .7z"/></svg>