<?xml version="1.0" standalone="no"?>
<!DOCTYPE svg PUBLIC "-//W3C//DTD SVG 20010904//EN"
 "http://www.w3.org/TR/2001/REC-SVG-20010904/DTD/svg10.dtd">
<svg version="1.0" xmlns="http://www.w3.org/2000/svg"
 width="700.000000pt" height="700.000000pt" viewBox="0 0 700.000000 700.000000"
 preserveAspectRatio="xMidYMid meet">
<metadata>
Created by potrace 1.11, written by Peter Selinger 2001-2013
</metadata>
<g transform="translate(0.000000,700.000000) scale(0.100000,-0.100000)"
fill="#000000" stroke="none">
<path d="M4280 5830 c-11 -21 -20 -43 -20 -48 0 -4 28 -23 63 -41 94 -50 92
-45 46 -136 -22 -44 -42 -81 -43 -83 -2 -1 -41 16 -87 38 l-83 40 -17 -27
c-41 -65 -37 -74 51 -118 44 -22 80 -40 80 -41 0 -2 -92 -168 -96 -172 -1 -2
-39 13 -84 32 -44 20 -84 36 -89 36 -12 0 -53 -80 -48 -94 3 -7 37 -29 76 -50
41 -22 71 -44 71 -53 0 -23 -71 -154 -87 -160 -8 -3 -45 9 -83 26 -39 17 -76
31 -83 31 -16 0 -61 -66 -53 -79 3 -5 40 -26 81 -46 42 -21 78 -41 81 -46 6
-11 -87 -180 -102 -186 -6 -2 -48 15 -93 38 -45 23 -84 40 -85 38 -2 -2 -13
-24 -24 -48 l-20 -45 72 -49 c39 -27 74 -54 78 -60 7 -11 -100 -227 -112 -227
-3 0 -40 18 -83 40 -42 22 -80 40 -85 40 -4 0 -17 -19 -29 -43 l-21 -43 32
-19 c17 -10 52 -32 79 -47 26 -16 47 -33 47 -39 0 -20 -102 -209 -112 -209 -6
0 -26 11 -44 25 -18 14 -36 25 -41 25 -4 0 -19 9 -33 20 -35 27 -47 25 -70
-12 -28 -46 -25 -59 17 -88 21 -14 54 -40 75 -58 l37 -34 -39 -76 c-64 -128
-55 -123 -140 -69 -41 26 -77 47 -81 47 -14 0 -61 -90 -55 -105 3 -9 14 -19
23 -23 39 -16 123 -74 123 -85 0 -15 -93 -184 -118 -216 l-19 -24 -78 47 c-42
26 -78 46 -80 44 -20 -26 -65 -93 -65 -98 0 -4 38 -32 85 -64 l85 -56 -50 -98
c-28 -53 -58 -107 -68 -119 l-17 -22 -80 50 c-43 27 -84 49 -90 49 -5 0 -22
-26 -37 -57 -23 -51 -24 -60 -12 -73 8 -8 168 -110 357 -226 267 -165 345
-209 355 -200 7 7 75 163 152 347 77 183 144 343 149 354 5 11 37 88 71 170
34 83 68 164 76 180 7 17 54 129 104 250 50 121 97 234 105 250 7 17 43 102
79 190 37 88 71 169 76 180 5 11 64 151 131 310 66 160 127 304 134 320 8 17
68 161 134 320 l121 290 -232 113 c-127 61 -232 112 -234 112 -2 0 -13 -18
-24 -40z"/>
<path d="M1971 4639 c-107 -65 -197 -119 -200 -119 -3 0 -21 -13 -40 -28 l-33
-28 35 -69 35 -69 -21 -11 c-12 -6 -35 -19 -50 -29 -15 -11 -29 -17 -31 -15
-1 2 -20 32 -40 67 -41 68 -41 68 -105 27 -41 -25 -41 -25 -27 -58 7 -19 25
-52 40 -75 14 -23 26 -46 26 -51 0 -9 -78 -71 -90 -71 -3 0 -28 36 -55 79 -55
87 -56 88 -130 38 l-34 -23 19 -35 c11 -19 31 -55 45 -81 l25 -47 -45 -27
c-25 -14 -47 -25 -49 -23 -2 2 -24 37 -50 77 l-46 73 -48 -26 c-62 -34 -85
-52 -81 -62 2 -5 47 -80 99 -166 52 -87 101 -169 109 -183 10 -20 108 -73 440
-236 234 -115 444 -218 466 -229 l40 -19 33 37 c72 83 124 155 119 167 -3 7
-125 102 -272 212 -146 109 -278 209 -293 222 -15 12 -42 32 -59 45 -18 12
-33 25 -33 29 0 4 39 40 87 80 47 40 107 91 133 113 25 22 139 117 253 210
113 94 206 174 207 178 0 4 -19 35 -42 69 -24 33 -47 68 -53 77 -18 31 -77
101 -83 100 -4 0 -94 -54 -201 -120z"/>
<path d="M4991 4680 c-76 -88 -93 -114 -86 -131 5 -11 596 -469 645 -499 7 -4
11 -12 9 -17 -4 -11 -166 -146 -349 -293 -58 -46 -107 -87 -110 -90 -3 -3 -34
-30 -70 -59 -36 -30 -84 -73 -107 -95 -50 -46 -56 -28 59 -188 58 -81 73 -96
87 -89 9 6 122 75 251 155 128 80 236 146 241 146 4 0 9 3 11 8 2 4 36 28 76
52 41 25 88 54 106 65 18 11 76 47 130 80 l96 60 -2 255 -3 255 -440 221
c-242 122 -450 224 -462 228 -18 6 -32 -5 -82 -64z m803 -365 c34 -22 56 -64
56 -105 0 -105 -124 -159 -204 -89 -115 101 20 278 148 194z m-40 -349 c63
-26 85 -128 40 -190 -72 -96 -230 -33 -217 87 6 53 23 79 65 100 41 20 69 21
112 3z"/>
<path d="M887 1730 c-9 -4 -12 -42 -12 -135 l0 -130 117 1 c122 0 162 11 173
45 3 10 6 50 6 90 0 64 -2 74 -27 100 -26 27 -31 28 -136 31 -60 2 -115 1
-121 -2z m214 -71 c19 -31 10 -39 -45 -39 -53 0 -54 1 -58 31 l-5 31 50 -5
c27 -2 53 -11 58 -18z m-8 -88 c9 -1 17 -7 17 -15 0 -22 -28 -39 -70 -42 -39
-2 -40 -2 -40 31 0 32 1 33 38 30 20 -2 45 -3 55 -4z"/>
<path d="M2117 1733 c-2 -1 -35 -3 -75 -4 -107 -3 -142 -41 -142 -154 0 -60 9
-81 38 -95 31 -15 261 -26 263 -14 1 5 2 39 3 77 l2 67 -36 0 -37 0 1 -47 c1
-47 1 -48 -33 -50 -19 -2 -45 4 -57 12 -19 12 -22 22 -20 71 2 70 14 80 103
83 74 2 76 3 80 30 2 16 -5 20 -43 23 -25 2 -46 2 -47 1z"/>
<path d="M2576 1728 c-22 -5 -47 -15 -56 -23 -15 -14 -20 -13 -43 5 -18 15
-40 20 -81 20 -51 0 -56 -2 -57 -22 0 -13 -1 -72 -2 -133 l-1 -110 34 0 35 0
3 69 c1 39 4 72 6 73 2 2 20 -19 41 -47 l38 -51 24 23 c14 13 32 35 41 51 15
25 34 37 31 20 -1 -5 -1 -38 0 -75 l1 -68 35 0 35 0 0 134 c0 131 0 134 -22
138 -13 2 -41 0 -62 -4z"/>
<path d="M3734 1729 c-5 -9 -8 -183 -5 -251 1 -15 11 -18 61 -18 l60 0 1 43
c1 23 1 48 0 55 -4 28 12 9 34 -43 l25 -55 60 0 c33 0 60 3 60 6 0 4 -8 29
-17 56 -17 47 -17 50 0 62 33 25 16 114 -27 134 -11 5 -62 10 -113 11 -51 1
-101 4 -112 6 -11 2 -23 -1 -27 -6z m207 -59 c43 -24 13 -50 -58 -50 -30 0
-33 3 -33 30 0 28 3 30 36 30 19 0 44 -5 55 -10z"/>
<path d="M5825 1731 c-3 -2 -5 -64 -5 -138 l0 -133 35 0 34 0 3 78 3 77 34
-48 c20 -27 41 -46 50 -45 8 2 30 23 48 46 24 32 33 39 34 25 4 -77 6 -109 8
-118 0 -6 16 -12 35 -13 33 -2 35 -1 38 35 2 21 2 82 0 136 l-3 97 -53 0 c-39
0 -61 -6 -80 -21 -26 -21 -28 -21 -47 -3 -19 17 -123 37 -134 25z"/>
<path d="M1209 1678 c-3 -134 9 -180 50 -200 18 -8 72 -15 144 -16 l114 -3 5
25 c3 14 2 26 -1 27 -3 0 -41 2 -85 3 -53 2 -81 8 -87 17 -5 8 -9 56 -9 107
l0 92 -65 0 -65 0 -1 -52z"/>
<path d="M1608 1714 c-37 -25 -48 -55 -48 -132 1 -103 27 -121 165 -118 82 2
90 4 112 30 12 15 23 36 24 47 3 52 2 67 -4 100 -12 62 -44 82 -140 86 -65 3
-88 0 -109 -13z m166 -50 c23 -23 25 -108 2 -132 -21 -22 -56 -22 -76 -2 -26
26 -27 105 -3 132 20 22 56 23 77 2z"/>
<path d="M2695 1598 l0 -133 60 0 c57 0 60 1 62 25 0 14 1 31 2 38 1 7 15 12
36 12 30 0 38 -6 60 -41 21 -33 31 -40 53 -37 20 2 26 8 24 22 -4 22 -95 211
-112 231 -9 11 -35 15 -99 15 l-86 0 0 -132z m155 42 c25 -49 25 -50 -5 -50
-23 0 -25 4 -25 45 0 25 2 45 5 45 2 0 14 -18 25 -40z"/>
<path d="M3039 1708 c0 -13 -2 -72 -2 -133 l-2 -110 68 -3 67 -3 1 58 0 58 26
-57 26 -58 46 0 c74 0 76 5 42 100 -32 87 -31 99 8 134 29 26 26 36 -10 36
-23 0 -43 -13 -85 -51 -30 -29 -54 -48 -55 -43 0 5 -2 25 -4 44 -1 19 -3 38
-4 43 0 4 -28 7 -61 7 -55 0 -60 -2 -61 -22z"/>
<path d="M3438 1713 c-71 -44 -76 -210 -9 -239 9 -3 71 -9 139 -11 l122 -6 0
29 0 29 -69 0 c-82 -1 -111 8 -111 34 0 25 12 28 90 25 85 -2 99 2 93 26 -5
18 -14 20 -94 20 -83 0 -89 1 -89 20 0 27 36 40 116 40 62 0 64 1 64 25 l0 25
-112 0 c-88 0 -119 -4 -140 -17z"/>
<path d="M4133 1720 c-40 -16 -57 -56 -58 -138 0 -70 2 -76 27 -95 24 -18 43
-21 150 -21 l123 -1 0 73 1 72 -37 0 -36 0 1 -47 1 -48 -38 -2 c-58 -2 -81 25
-75 89 7 65 24 77 114 78 68 0 70 1 70 25 l0 25 -110 -1 c-61 0 -121 -4 -133
-9z"/>
<path d="M4420 1725 c0 -3 16 -30 37 -60 36 -55 38 -62 42 -187 1 -15 11 -18
66 -18 l65 0 0 81 c0 76 2 83 33 122 51 64 52 67 18 67 -22 0 -39 -10 -63 -35
l-31 -35 -29 35 c-27 32 -34 35 -84 35 -30 0 -54 -2 -54 -5z"/>
<path d="M4754 1715 c-10 -25 6 -35 52 -35 l45 0 -1 -72 c-1 -40 -2 -90 -1
-110 l1 -38 60 0 60 0 0 110 0 110 44 0 c44 0 58 11 48 38 -7 19 -301 17 -308
-3z"/>
<path d="M5189 1715 c-70 -38 -78 -212 -12 -240 10 -4 72 -10 139 -12 100 -5
122 -3 127 9 11 31 -10 41 -88 43 -89 2 -95 7 -95 82 0 69 19 83 112 83 66 0
68 1 68 25 l0 25 -112 0 c-78 -1 -121 -5 -139 -15z"/>
<path d="M5523 1708 c-34 -25 -43 -52 -43 -127 0 -98 18 -113 138 -118 110 -4
147 13 160 73 13 62 0 131 -32 162 -24 24 -35 27 -109 30 -73 3 -86 1 -114
-20z m171 -44 c23 -23 25 -108 2 -132 -21 -22 -56 -22 -76 -2 -26 26 -27 105
-3 132 20 22 56 23 77 2z"/>
<path d="M2255 1514 c-19 -20 -19 -43 0 -50 19 -8 45 13 45 36 0 24 -26 32
-45 14z"/>
<path d="M5047 1513 c-10 -10 -8 -41 3 -48 16 -10 50 14 50 35 0 14 -7 20 -23
20 -13 0 -27 -3 -30 -7z"/>
</g>
</svg>
